<svg version="1.1" viewBox="0 0 100 125" x="0px" xmlns:cc="http://creativecommons.org/ns#" xmlns:dc="http://purl.org/dc/elements/1.1/" xmlns:inkscape="http://www.inkscape.org/namespaces/inkscape"
  xmlns:rdf="http://www.w3.org/1999/02/22-rdf-syntax-ns#" xmlns:sodipodi="http://sodipodi.sourceforge.net/DTD/sodipodi-0.dtd" xmlns:svg="http://www.w3.org/2000/svg" xmlns="http://www.w3.org/2000/svg" y="0px">
  <g transform="translate(0,-952.3622)"><path d="m 35,957.3622 c -4.155,0 -7.5,3.345 -7.5,7.5 l 0,75 c 0,4.155 3.345,7.5 7.5,7.5 l 30,0 c 4.155,0 7.5,-3.345 7.5,-7.5 l 0,-75 c 0,-4.155 -3.345,-7.5 -7.5,-7.5 l -30,0 z m -3.75,11.25 37.5,0 0,67.5 -37.5,0 0,-67.5 z" display="inline"
    fill-opacity="1" fill-rule="nonzero" fill="#000000" marker="none" overflow="visible" stroke="none" style="color:#000000;enable-background:accumulate;" visibility="visible"/><rect display="inline" fill-opacity="1" fill-rule="nonzero" fill="#000000" height="56.25" marker="none" overflow="visible" stroke="none" style="color:#000000;enable-background:accumulate;" visibility="visible" width="3.75" x="76.25" y="974.23718"/><rect display="inline" fill-opacity="1" fill-rule="nonzero" fill="#000000" height="37.5" marker="none" overflow="visible" stroke="none" style="color:#000000;enable-background:accumulate;" visibility="visible" width="3.75" x="83.75" y="983.61218"/><rect display="inline" fill-opacity="1" fill-rule="nonzero" fill="#000000" height="56.25" marker="none" overflow="visible" stroke="none" style="color:#000000;enable-background:accumulate;" visibility="visible" width="3.75" x="20" y="974.23718"/><rect display="inline" fill-opacity="1" fill-rule="nonzero" fill="#000000" height="37.5" marker="none" overflow="visible" stroke="none" style="color:#000000;enable-background:accumulate;" visibility="visible" width="3.75" x="12.5" y="983.61218"/></g>
  
</svg>
