<svg enable-background="new 0 0 125 125" version="1.1" viewBox="0 0 100 125" x="0px" xml:space="preserve" xmlns:graph="http://ns.adobe.com/Graphs/1.0/" xmlns:i="http://ns.adobe.com/AdobeIllustrator/10.0/"
  xmlns:x="http://ns.adobe.com/Extensibility/1.0/" xmlns:xlink="http://www.w3.org/1999/xlink" xmlns="http://www.w3.org/2000/svg" y="0px">

  <path d="M37,30v46h27V30h-6H44H37z M62,74H39v-9h23V74z M62,63H39v-9h23V63z M62,43v9H39v-9H62z" fill="none"/>
  <rect fill="none" height="4" width="10" x="46" y="24"/><path d="M58,22H44v6h-9v50h31V28h-8V22z M46,24h10v4H46V24z M64,30v46H37V30h7h14H64z"/><rect height="9" width="23" x="39" y="65"/><rect height="9" width="23" x="39" y="54"/><rect height="9" width="23" x="39" y="43"/>

</svg>
