<svg enable-background="new 0 0 90 90" version="1.1" viewBox="0 0 90 112.5" x="0px" xml:space="preserve" xmlns:xlink="http://www.w3.org/1999/xlink" xmlns="http://www.w3.org/2000/svg" y="0px"><path
  d="M49.163,46.652c0.026-0.057,5.885-21.095,5.885-21.095c0.402-0.984-0.067-2.107-1.051-2.51  c-0.981-0.402-2.104,0.067-2.509,1.051L40.875,43.256c0.002-0.007-5.922,21.188-5.922,21.188c-0.403,0.981,0.068,2.106,1.051,2.51  c0.982,0.402,2.107-0.066,2.509-1.051L49.163,46.652z M46.309,41.811c1.635,0.67,2.42,2.546,1.75,4.182  c-0.67,1.637-2.547,2.422-4.183,1.751c-1.635-0.67-2.421-2.547-1.751-4.182C42.794,41.926,44.671,41.141,46.309,41.811z M41,44.392  c0,0,0-0.001,0-0.002C41,44.391,41,44.391,41,44.392z M40.639,45.334c0-0.005,0-0.01-0.002-0.015  C40.639,45.324,40.639,45.329,40.639,45.334z M37.39,65.281l-0.036,0.064l-0.028,0.07c-0.134,0.326-0.51,0.482-0.836,0.35  c-0.327-0.135-0.485-0.509-0.35-0.836l0.029-0.068l0.019-0.073l4.975-17.845l0,0c0.477,0.865,1.241,1.582,2.228,1.988  c0.986,0.403,2.033,0.428,2.981,0.146l0.001-0.001L37.39,65.281z M48,47.742c0-0.001,0-0.002,0-0.002S48,47.741,48,47.742z   M47.873,48.299c0.004-0.004,0.007-0.008,0.012-0.01C47.88,48.291,47.877,48.295,47.873,48.299z"/><path
  d="M45,14.5c16.817,0,30.5,13.682,30.5,30.5c0,16.817-13.683,30.5-30.5,30.5c-16.818,0-30.5-13.683-30.5-30.5  C14.5,28.182,28.182,14.5,45,14.5 M45,12.5c-17.949,0-32.5,14.551-32.5,32.5S27.051,77.5,45,77.5S77.5,62.949,77.5,45  S62.949,12.5,45,12.5L45,12.5z"/>
  
</svg>
