<svg enable-background="new 0 0 57.94 58" version="1.1" viewBox="0 0 75 100" x="0px" xml:space="preserve" xmlns:xlink="http://www.w3.org/1999/xlink" xmlns="http://www.w3.org/2000/svg" y="0px">
  <path
  d="M50.16,9.22l2.01-2.01c0.39-0.39,0.39-1.02,0-1.41s-1.02-0.39-1.41,0L48.74,7.8C43.36,2.77,36.38,0,28.97,0
   c-6.04,0-11.78,1.84-16.68,5.29C11.37,4.47,10.21,4,8.96,4C7.62,4,6.37,4.52,5.43,5.46c-1.88,1.88-1.93,4.89-0.18,6.86
     C-2.8,23.73-1.49,39.56,8.45,49.5C13.93,54.98,21.21,58,28.96,58s15.03-3.02,20.51-8.49C60.54,38.43,60.76,20.57,50.16,9.22z
       M6.84,6.88C7.41,6.31,8.16,6,8.96,6s1.55,0.31,2.12,0.88c0.08,0.08,0.14,0.17,0.21,0.26l0.06,0.08c0.33,0.44,0.53,0.96,0.58,1.48
        c0,0,0,0,0,0.01c0.02,0.17,0.02,0.34,0.01,0.51c0,0.02,0,0.03,0,0.05c-0.01,0.16-0.04,0.31-0.07,0.46
         c-0.01,0.04-0.02,0.07-0.03,0.11c-0.04,0.13-0.08,0.26-0.13,0.39c-0.03,0.07-0.07,0.13-0.1,0.2c-0.05,0.09-0.09,0.19-0.15,0.28
          c-0.1,0.15-0.22,0.3-0.36,0.44c-0.14,0.14-0.28,0.25-0.44,0.36c-0.05,0.03-0.11,0.06-0.16,0.09c-0.11,0.06-0.22,0.13-0.34,0.17
            c-0.06,0.02-0.12,0.04-0.18,0.06c-0.12,0.04-0.24,0.08-0.36,0.1c-0.06,0.01-0.12,0.02-0.18,0.03c-0.13,0.02-0.25,0.03-0.38,0.03
            c-0.06,0-0.13,0-0.19,0c-0.12,0-0.23-0.01-0.35-0.03c-0.08-0.01-0.16-0.03-0.24-0.04C8.17,11.86,8.08,11.83,8,11.81
             c-0.1-0.03-0.21-0.07-0.31-0.12c-0.05-0.02-0.09-0.05-0.13-0.07c-0.13-0.07-0.26-0.14-0.38-0.23l-0.02-0.01
             c-0.11-0.08-0.22-0.16-0.32-0.26C5.67,9.95,5.67,8.04,6.84,6.88z M48.05,48.09C42.95,53.19,36.17,56,28.96,56
              s-13.99-2.81-19.09-7.91C0.63,38.84-0.61,24.13,6.85,13.51C7,13.59,7.16,13.65,7.33,13.7c0.06,0.02,0.12,0.04,0.18,0.05
               c0.25,0.08,0.5,0.13,0.75,0.17c0.15,0.02,0.31,0.04,0.46,0.05C8.8,13.98,8.88,14,8.96,14c1.34,0,2.59-0.52,3.54-1.46
                c0.22-0.22,0.4-0.45,0.57-0.7c0.06-0.09,0.12-0.19,0.18-0.29c0.09-0.15,0.17-0.3,0.24-0.46c0.06-0.13,0.11-0.26,0.16-0.39
                 c0.04-0.12,0.08-0.25,0.11-0.37c0.17-0.61,0.21-1.23,0.15-1.85C13.9,8.41,13.9,8.36,13.89,8.3c-0.03-0.21-0.07-0.41-0.13-0.61
                   c-0.02-0.06-0.04-0.12-0.05-0.18C13.64,7.3,13.57,7.1,13.48,6.9c0-0.01,0-0.01-0.01-0.02C18.02,3.69,23.36,2,28.97,2
                    c6.87,0,13.35,2.56,18.36,7.22l-3.55,3.55c-4.06-3.71-9.27-5.76-14.82-5.76c-5.88,0-11.41,2.29-15.56,6.43
                      c-8.58,8.58-8.58,22.53,0,31.11c4.15,4.15,9.67,6.43,15.56,6.43s11.41-2.29,15.56-6.43c3.46-3.46,5.65-8.01,6.24-12.87
                       c0.84-0.22,1.61-0.64,2.24-1.27c1.95-1.95,1.95-5.12,0-7.07c-0.87-0.87-2.01-1.36-3.23-1.43c-0.97-2.86-2.53-5.5-4.57-7.74
                       l3.54-3.54C58.57,21.21,58.34,37.8,48.05,48.09z M51.59,24.75c1.17,1.17,1.17,3.07,0,4.24c-0.55,0.55-1.3,0.83-2.05,0.84
                        c-0.05,0-0.1,0-0.15,0c-0.16,0-0.31-0.02-0.47-0.04c-0.03-0.01-0.07-0.02-0.1-0.02c-0.16-0.03-0.32-0.07-0.47-0.13
                         c-0.05-0.02-0.1-0.05-0.15-0.07c-0.13-0.06-0.26-0.12-0.38-0.19c-0.17-0.11-0.33-0.23-0.48-0.38c-0.14-0.15-0.27-0.3-0.38-0.47
                          c-0.03-0.04-0.04-0.08-0.06-0.12c-0.08-0.13-0.16-0.26-0.21-0.4c-0.01-0.02-0.01-0.04-0.02-0.06c-0.26-0.69-0.26-1.45,0-2.14
                           c0.01-0.02,0.01-0.04,0.02-0.06c0.06-0.15,0.14-0.29,0.22-0.42c0.02-0.03,0.03-0.07,0.05-0.1c0.11-0.17,0.24-0.32,0.38-0.47
                             c0.61-0.6,1.32-0.79,1.81-0.84l0.32-0.03C50.27,23.88,51.02,24.19,51.59,24.75z M47.73,22.2c-0.29,0.11-0.56,0.24-0.82,0.4
                              c-0.05,0.03-0.1,0.05-0.15,0.08c-0.29,0.19-0.57,0.41-0.83,0.66c-0.24,0.24-0.45,0.5-0.64,0.78c-0.03,0.05-0.05,0.1-0.08,0.15
                               c-0.14,0.23-0.28,0.47-0.38,0.73c0,0.01-0.01,0.02-0.01,0.03c-0.23,0.58-0.36,1.21-0.36,1.85c0,0.65,0.13,1.27,0.36,1.86
                                c0,0.01,0,0.02,0.01,0.03c0.1,0.25,0.24,0.49,0.38,0.73c0.03,0.05,0.05,0.1,0.08,0.14c0.18,0.28,0.4,0.54,0.64,0.78
                                 c0.21,0.21,0.45,0.4,0.69,0.57c0.1,0.07,0.21,0.12,0.31,0.19c0.14,0.08,0.29,0.17,0.44,0.24c0.14,0.07,0.29,0.12,0.44,0.18
                                   c0.11,0.04,0.22,0.07,0.33,0.1c0.18,0.05,0.37,0.1,0.56,0.12c0.01,0,0.03,0.01,0.04,0.01c-0.6,4.28-2.58,8.27-5.64,11.33
                                    c-3.77,3.77-8.79,5.85-14.14,5.85s-10.37-2.08-14.14-5.85c-7.8-7.8-7.8-20.49,0-28.28c3.77-3.77,8.79-5.85,14.14-5.85
                                     c5.01,0,9.72,1.84,13.4,5.18l-4.24,4.24C35.58,16.22,32.37,15,28.96,15c-3.74,0-7.26,1.45-9.9,4.09s-4.09,6.16-4.09,9.9
                                     s1.45,7.26,4.09,9.9s6.16,4.09,9.9,4.09s7.26-1.45,9.9-4.09s4.09-6.16,4.09-9.9c0-3.41-1.22-6.62-3.42-9.16l4.24-4.24
                                      c1.73,1.92,3.11,4.15,3.99,6.59C47.75,22.19,47.74,22.2,47.73,22.2z M28.25,29.7c0.2,0.2,0.45,0.29,0.71,0.29s0.51-0.1,0.71-0.29
                                       l8.45-8.45c1.83,2.16,2.84,4.87,2.84,7.74c0,3.21-1.25,6.22-3.51,8.49s-5.28,3.51-8.49,3.51s-6.22-1.25-8.49-3.51
                                         s-3.51-5.28-3.51-8.49s1.25-6.22,3.51-8.49S25.75,17,28.96,17c2.87,0,5.58,1,7.74,2.84l-8.45,8.45
                                         C27.86,28.68,27.86,29.31,28.25,29.7z"/>

</svg>
