<svg xmlns="http://www.w3.org/2000/svg" xmlns:xlink="http://www.w3.org/1999/xlink" version="1.1" x="0px" y="0px" viewBox="0 0 100 125" enable-background="new 0 0 100 100" xml:space="preserve"><path d="M82.5,5h-65C10.6,5,5,10.6,5,17.5v65C5,89.4,10.6,95,17.5,95h65C89.4,95,95,89.4,95,82.5v-65C95,10.6,89.4,5,82.5,5z   M90,82.5c0,4.1-3.4,7.5-7.5,7.5h-65c-4.1,0-7.5-3.4-7.5-7.5v-65c0-4.1,3.4-7.5,7.5-7.5h65c4.1,0,7.5,3.4,7.5,7.5V82.5z"/><path d="M82.5,30h-30V17.5c0-1-0.6-1.9-1.5-2.3c-0.9-0.4-2-0.2-2.7,0.5L15.7,48.2c-1,1-1,2.6,0,3.5l32.5,32.5  c0.5,0.5,1.1,0.7,1.8,0.7c0.3,0,0.6-0.1,1-0.2c0.9-0.4,1.5-1.3,1.5-2.3V70h30c1.4,0,2.5-1.1,2.5-2.5v-35C85,31.1,83.9,30,82.5,30z   M80,65H50c-1.4,0-2.5,1.1-2.5,2.5v9L21,50l26.5-26.5v9c0,1.4,1.1,2.5,2.5,2.5h30V65z"/></svg>