<svg enable-background="new 17 -18 100 100" version="1.1" viewBox="17 -18 100 125" x="0px" xml:space="preserve" xmlns:xlink="http://www.w3.org/1999/xlink" xmlns="http://www.w3.org/2000/svg" y="0px"><path
  d="M99.8,42.7c-1.3,4.1-1.3,4.1,2.8,5.4l8.2,2.7c4.1,1.3,4.1,1.3,5.4-2.8c1.3-4.1,1.3-4.1-2.8-5.4l-8.3-2.6  C101.1,38.6,101.1,38.6,99.8,42.7z M17.8,16c-1.3,4.1-1.3,4.1,2.8,5.4l8.3,2.6c4.1,1.4,4.1,1.4,5.4-2.8c1.3-4.1,1.3-4.1-2.8-5.4  l-8.2-2.7C19.1,11.9,19.1,11.9,17.8,16z M87.3,4.1c3.5,2.6,3.5,2.6,6-0.9l5.1-7c2.5-3.4,2.5-3.4-0.9-5.9c-3.5-2.6-3.5-2.6-6,0.9  l-5.1,7C83.8,1.6,83.8,1.6,87.3,4.1z M36.6,73.8c3.5,2.6,3.5,2.6,6-0.9l5.1-7c2.5-3.4,2.5-3.4-0.9-5.9c-3.5-2.6-3.5-2.6-6,0.9  l-5.1,7C33.1,71.3,33.1,71.3,36.6,73.8z M46.7,4.1c3.4-2.5,3.4-2.5,0.9-5.9l-5.1-7c-2.5-3.5-2.5-3.5-6-0.9c-3.4,2.5-3.4,2.5-0.9,5.9  l5.1,7C43.2,6.6,43.2,6.6,46.7,4.1z M97.4,73.8c3.4-2.5,3.4-2.5,0.9-5.9l-5.1-7c-2.5-3.5-2.5-3.5-6-0.9c-3.4,2.5-3.4,2.5-0.9,5.9  l5.1,7C93.9,76.4,93.9,76.4,97.4,73.8z M34.2,42.7c-1.4-4.1-1.4-4.1-5.4-2.8l-8.3,2.6c-4.1,1.4-4.1,1.4-2.8,5.4  c1.4,4.1,1.4,4.1,5.4,2.8l8.2-2.7C35.5,46.7,35.5,46.7,34.2,42.7z M116.2,16c-1.4-4.1-1.4-4.1-5.4-2.8l-8.2,2.7  c-4.1,1.4-4.1,1.4-2.8,5.4c1.4,4.1,1.4,4.1,5.4,2.8l8.3-2.6C117.5,20.1,117.5,20.1,116.2,16z M67,66.5c-4.3,0-4.3,0-4.3,4.3v8.6  c0,4.3,0,4.3,4.3,4.3s4.3,0,4.3-4.3v-8.6C71.3,66.5,71.3,66.5,67,66.5z M67-19.7c-4.3,0-4.3,0-4.3,4.3v8.6c0,4.3,0,4.3,4.3,4.3  s4.3,0,4.3-4.3v-8.6C71.3-19.7,71.3-19.7,67-19.7z M67,49.2c-9.5,0-17.2-7.7-17.2-17.2S57.5,14.8,67,14.8S84.2,22.5,84.2,32  S76.5,49.2,67,49.2z M67,57.9c14.3,0,25.9-11.6,25.9-25.9S81.3,6.1,67,6.1S41.1,17.7,41.1,32S52.7,57.9,67,57.9z"/>
  
</svg>
