<svg enable-background="new 0 0 100 100" version="1.1" viewBox="0 0 100 125" x="0px" xml:space="preserve" xmlns:xlink="http://www.w3.org/1999/xlink" xmlns="http://www.w3.org/2000/svg" y="0px">

  <defs>
      <link href="../../styles/svg.css" type="text/css" rel="stylesheet" 
            xmlns="http://www.w3.org/1999/xhtml"/>
  </defs>
  <path
    d="M67.793,31.339l5.715-5.644l-1.744-1.752L66.271,29.9c-4.656-4.071-10.746-6.543-17.417-6.543  c-14.624,0-26.478,11.852-26.478,26.478c0,14.624,11.854,26.477,26.478,26.477c14.624,0,26.477-11.853,26.477-26.477  C75.33,42.635,72.454,36.112,67.793,31.339z M48.854,74.89c-13.839,0-25.056-11.217-25.056-25.056  c0-13.839,11.217-25.058,25.056-25.058c6.299,0,12.051,2.33,16.453,6.168l-8.632,9.362c-2.129-1.749-4.853-2.799-7.822-2.799  c-6.808,0-12.327,5.518-12.327,12.327c0,6.808,5.519,12.326,12.327,12.326c6.809,0,12.328-5.519,12.328-12.326  c0-3.322-1.32-6.331-3.457-8.547l9.06-8.949c4.407,4.517,7.127,10.687,7.127,17.496C73.91,63.673,62.691,74.89,48.854,74.89z   M50.826,46.649c-0.581-0.342-1.25-0.552-1.973-0.552c-2.16,0-3.912,1.751-3.912,3.912c0,2.162,1.751,3.914,3.912,3.914  c2.161,0,3.913-1.752,3.913-3.914c0-1.062-0.427-2.021-1.112-2.726l5.601-5.532c2.017,2.097,3.264,4.942,3.264,8.082  c0,6.443-5.222,11.665-11.665,11.665c-6.442,0-11.666-5.222-11.666-11.665c0-6.442,5.223-11.667,11.666-11.667  c2.796,0,5.362,0.987,7.372,2.627L50.826,46.649z"/><path
    d="M48.824,10.995c-21.451,0-38.839,17.388-38.839,38.839c0,21.45,17.388,38.838,38.839,38.838  c21.45,0,38.837-17.388,38.837-38.838C87.661,28.383,70.274,10.995,48.824,10.995z M48.826,86.588  c-20.3,0-36.754-16.457-36.754-36.754c0-20.298,16.454-36.755,36.754-36.755c20.297,0,36.752,16.457,36.752,36.755  C85.578,70.131,69.123,86.588,48.826,86.588z"/>
</svg>
