<svg xmlns="http://www.w3.org/2000/svg" xmlns:xlink="http://www.w3.org/1999/xlink" version="1.1" x="0px" y="0px" viewBox="0 0 100 125" enable-background="new 0 0 100 100" xml:space="preserve"><path d="M82.5,5h-65C10.6,5,5,10.6,5,17.5v65C5,89.4,10.6,95,17.5,95h65C89.4,95,95,89.4,95,82.5v-65C95,10.6,89.4,5,82.5,5z   M90,82.5c0,4.1-3.4,7.5-7.5,7.5h-65c-4.1,0-7.5-3.4-7.5-7.5v-65c0-4.1,3.4-7.5,7.5-7.5h65c4.1,0,7.5,3.4,7.5,7.5V82.5z"/><path d="M51.8,15.7C51.1,15,50,14.8,49,15.2c-0.9,0.4-1.5,1.3-1.5,2.3V30h-30c-1.4,0-2.5,1.1-2.5,2.5v35c0,1.4,1.1,2.5,2.5,2.5h30  v12.5c0,1,0.6,1.9,1.5,2.3c0.3,0.1,0.6,0.2,1,0.2c0.7,0,1.3-0.3,1.8-0.7l32.5-32.5c1-1,1-2.6,0-3.5L51.8,15.7z M52.5,76.5v-9  c0-1.4-1.1-2.5-2.5-2.5H20V35h30c1.4,0,2.5-1.1,2.5-2.5v-9L79,50L52.5,76.5z"/></svg>