<svg xmlns="http://www.w3.org/2000/svg" xmlns:xlink="http://www.w3.org/1999/xlink" version="1.1" x="0px" y="0px" viewBox="0 0 100 125" enable-background="new 0 0 100 100" xml:space="preserve"><path fill="#000000" d="M61.3,65V35c0-1.1-0.9-2-2-2s-2,0.9-2,2v30c0,1.1,0.9,2,2,2S61.3,66.1,61.3,65z"/><path fill="#000000" d="M71.3,75V25c0-1.1-0.9-2-2-2s-2,0.9-2,2v50c0,1.1,0.9,2,2,2S71.3,76.1,71.3,75z"/><path fill="#000000" d="M82,85V15c0-1.1-0.9-2-2-2s-2,0.9-2,2v70c0,1.1,0.9,2,2,2S82,86.1,82,85z"/><path fill="#000000" d="M29.5,67l19,19.4C49,86.8,49.5,87,50,87c0.3,0,0.5,0,0.8-0.1c0.8-0.3,1.2-1,1.2-1.9V15  c0-0.8-0.5-1.5-1.2-1.9c-0.8-0.3-1.6-0.1-2.2,0.5L29.4,33.1H20c-1.1,0-2,0.9-2,2V65c0,1.1,0.9,2,2,2H29.5z M48,80.1l-15.8-16V35.9  l15.8-16V80.1z M22,37.1h6.2V63H22V37.1z"/></svg>
